<mxfile host="Electron" modified="2024-01-07T16:09:49.291Z" agent="Mozilla/5.0 (Windows NT 10.0; Win64; x64) AppleWebKit/537.36 (KHTML, like Gecko) draw.io/22.1.16 Chrome/120.0.6099.109 Electron/28.1.0 Safari/537.36" etag="NqGFsUcNUbgA2KL2WjHG" version="22.1.16" type="device">
  <diagram name="PÃ¡gina-1" id="YUlk9pM3waovk4cFbQ1r">
    <mxGraphModel dx="1036" dy="606" grid="1" gridSize="10" guides="1" tooltips="1" connect="1" arrows="1" fold="1" page="1" pageScale="1" pageWidth="827" pageHeight="1169" math="0" shadow="0">
      <root>
        <mxCell id="0" />
        <mxCell id="1" parent="0" />
        <mxCell id="oZkibnHn8L5nNyBWjRg7-11" value="" style="rounded=1;whiteSpace=wrap;html=1;" vertex="1" parent="1">
          <mxGeometry x="420" y="80" width="280" height="450" as="geometry" />
        </mxCell>
        <mxCell id="oZkibnHn8L5nNyBWjRg7-1" value="&lt;h1&gt;Engine&lt;/h1&gt;" style="text;html=1;strokeColor=none;fillColor=none;spacing=5;spacingTop=-20;whiteSpace=wrap;overflow=hidden;rounded=0;" vertex="1" parent="1">
          <mxGeometry x="60" y="30" width="190" height="40" as="geometry" />
        </mxCell>
        <mxCell id="oZkibnHn8L5nNyBWjRg7-2" value="" style="rounded=1;whiteSpace=wrap;html=1;" vertex="1" parent="1">
          <mxGeometry x="40" y="80" width="280" height="450" as="geometry" />
        </mxCell>
        <mxCell id="oZkibnHn8L5nNyBWjRg7-19" style="edgeStyle=orthogonalEdgeStyle;rounded=0;orthogonalLoop=1;jettySize=auto;html=1;exitX=1;exitY=0.5;exitDx=0;exitDy=0;entryX=0;entryY=0.5;entryDx=0;entryDy=0;" edge="1" parent="1" source="oZkibnHn8L5nNyBWjRg7-3" target="oZkibnHn8L5nNyBWjRg7-12">
          <mxGeometry relative="1" as="geometry" />
        </mxCell>
        <mxCell id="oZkibnHn8L5nNyBWjRg7-3" value="&lt;font style=&quot;font-size: 19px;&quot;&gt;Engine&lt;/font&gt;" style="rounded=1;whiteSpace=wrap;html=1;" vertex="1" parent="1">
          <mxGeometry x="70" y="100" width="220" height="40" as="geometry" />
        </mxCell>
        <mxCell id="oZkibnHn8L5nNyBWjRg7-20" style="edgeStyle=orthogonalEdgeStyle;rounded=0;orthogonalLoop=1;jettySize=auto;html=1;exitX=1;exitY=0.5;exitDx=0;exitDy=0;entryX=0;entryY=0.5;entryDx=0;entryDy=0;" edge="1" parent="1" source="oZkibnHn8L5nNyBWjRg7-4" target="oZkibnHn8L5nNyBWjRg7-13">
          <mxGeometry relative="1" as="geometry" />
        </mxCell>
        <mxCell id="oZkibnHn8L5nNyBWjRg7-4" value="&lt;span style=&quot;font-size: 19px;&quot;&gt;IGraphics&lt;/span&gt;" style="rounded=1;whiteSpace=wrap;html=1;" vertex="1" parent="1">
          <mxGeometry x="68" y="165" width="220" height="40" as="geometry" />
        </mxCell>
        <mxCell id="oZkibnHn8L5nNyBWjRg7-21" style="edgeStyle=orthogonalEdgeStyle;rounded=0;orthogonalLoop=1;jettySize=auto;html=1;exitX=1;exitY=0.5;exitDx=0;exitDy=0;" edge="1" parent="1" source="oZkibnHn8L5nNyBWjRg7-5" target="oZkibnHn8L5nNyBWjRg7-14">
          <mxGeometry relative="1" as="geometry" />
        </mxCell>
        <mxCell id="oZkibnHn8L5nNyBWjRg7-5" value="&lt;span style=&quot;font-size: 19px;&quot;&gt;IImage&lt;/span&gt;" style="rounded=1;whiteSpace=wrap;html=1;" vertex="1" parent="1">
          <mxGeometry x="69" y="214" width="220" height="40" as="geometry" />
        </mxCell>
        <mxCell id="oZkibnHn8L5nNyBWjRg7-22" style="edgeStyle=orthogonalEdgeStyle;rounded=0;orthogonalLoop=1;jettySize=auto;html=1;exitX=1;exitY=0.5;exitDx=0;exitDy=0;" edge="1" parent="1" source="oZkibnHn8L5nNyBWjRg7-6" target="oZkibnHn8L5nNyBWjRg7-15">
          <mxGeometry relative="1" as="geometry" />
        </mxCell>
        <mxCell id="oZkibnHn8L5nNyBWjRg7-6" value="&lt;span style=&quot;font-size: 19px;&quot;&gt;IFont&lt;/span&gt;" style="rounded=1;whiteSpace=wrap;html=1;" vertex="1" parent="1">
          <mxGeometry x="68" y="264" width="220" height="40" as="geometry" />
        </mxCell>
        <mxCell id="oZkibnHn8L5nNyBWjRg7-23" style="edgeStyle=orthogonalEdgeStyle;rounded=0;orthogonalLoop=1;jettySize=auto;html=1;exitX=1;exitY=0.5;exitDx=0;exitDy=0;entryX=0;entryY=0.5;entryDx=0;entryDy=0;" edge="1" parent="1" source="oZkibnHn8L5nNyBWjRg7-7" target="oZkibnHn8L5nNyBWjRg7-16">
          <mxGeometry relative="1" as="geometry" />
        </mxCell>
        <mxCell id="oZkibnHn8L5nNyBWjRg7-7" value="&lt;span style=&quot;font-size: 19px;&quot;&gt;IAudio&lt;/span&gt;" style="rounded=1;whiteSpace=wrap;html=1;" vertex="1" parent="1">
          <mxGeometry x="67" y="330" width="220" height="40" as="geometry" />
        </mxCell>
        <mxCell id="oZkibnHn8L5nNyBWjRg7-24" style="edgeStyle=orthogonalEdgeStyle;rounded=0;orthogonalLoop=1;jettySize=auto;html=1;exitX=1;exitY=0.5;exitDx=0;exitDy=0;" edge="1" parent="1" source="oZkibnHn8L5nNyBWjRg7-8" target="oZkibnHn8L5nNyBWjRg7-17">
          <mxGeometry relative="1" as="geometry" />
        </mxCell>
        <mxCell id="oZkibnHn8L5nNyBWjRg7-8" value="&lt;span style=&quot;font-size: 19px;&quot;&gt;ISound&lt;/span&gt;" style="rounded=1;whiteSpace=wrap;html=1;" vertex="1" parent="1">
          <mxGeometry x="68" y="379" width="220" height="40" as="geometry" />
        </mxCell>
        <mxCell id="oZkibnHn8L5nNyBWjRg7-25" style="edgeStyle=orthogonalEdgeStyle;rounded=0;orthogonalLoop=1;jettySize=auto;html=1;exitX=1;exitY=0.5;exitDx=0;exitDy=0;entryX=0;entryY=0.5;entryDx=0;entryDy=0;" edge="1" parent="1" source="oZkibnHn8L5nNyBWjRg7-9" target="oZkibnHn8L5nNyBWjRg7-18">
          <mxGeometry relative="1" as="geometry" />
        </mxCell>
        <mxCell id="oZkibnHn8L5nNyBWjRg7-9" value="&lt;span style=&quot;font-size: 19px;&quot;&gt;IInput&lt;/span&gt;" style="rounded=1;whiteSpace=wrap;html=1;" vertex="1" parent="1">
          <mxGeometry x="67" y="439" width="220" height="40" as="geometry" />
        </mxCell>
        <mxCell id="oZkibnHn8L5nNyBWjRg7-10" value="&lt;span id=&quot;docs-internal-guid-0d9220d7-7fff-d7fb-f272-ba92176ca580&quot;&gt;&lt;/span&gt;&lt;h1&gt;PCEngine&lt;/h1&gt;" style="text;html=1;strokeColor=none;fillColor=none;spacing=5;spacingTop=-20;whiteSpace=wrap;overflow=hidden;rounded=0;" vertex="1" parent="1">
          <mxGeometry x="440" y="30" width="190" height="40" as="geometry" />
        </mxCell>
        <mxCell id="oZkibnHn8L5nNyBWjRg7-12" value="&lt;font style=&quot;font-size: 19px;&quot;&gt;PCEngine&lt;/font&gt;" style="rounded=1;whiteSpace=wrap;html=1;" vertex="1" parent="1">
          <mxGeometry x="450" y="100" width="220" height="40" as="geometry" />
        </mxCell>
        <mxCell id="oZkibnHn8L5nNyBWjRg7-13" value="&lt;span style=&quot;font-size: 19px;&quot;&gt;PC&lt;/span&gt;&lt;span style=&quot;font-size: 19px;&quot;&gt;Graphics&lt;/span&gt;" style="rounded=1;whiteSpace=wrap;html=1;" vertex="1" parent="1">
          <mxGeometry x="448" y="165" width="220" height="40" as="geometry" />
        </mxCell>
        <mxCell id="oZkibnHn8L5nNyBWjRg7-14" value="&lt;span style=&quot;font-size: 19px;&quot;&gt;PC&lt;/span&gt;&lt;span style=&quot;font-size: 19px;&quot;&gt;Image&lt;/span&gt;" style="rounded=1;whiteSpace=wrap;html=1;" vertex="1" parent="1">
          <mxGeometry x="449" y="214" width="220" height="40" as="geometry" />
        </mxCell>
        <mxCell id="oZkibnHn8L5nNyBWjRg7-15" value="&lt;span style=&quot;font-size: 19px;&quot;&gt;PC&lt;/span&gt;&lt;span style=&quot;font-size: 19px;&quot;&gt;Font&lt;/span&gt;" style="rounded=1;whiteSpace=wrap;html=1;" vertex="1" parent="1">
          <mxGeometry x="448" y="264" width="220" height="40" as="geometry" />
        </mxCell>
        <mxCell id="oZkibnHn8L5nNyBWjRg7-16" value="&lt;span style=&quot;font-size: 19px;&quot;&gt;PC&lt;/span&gt;&lt;span style=&quot;font-size: 19px;&quot;&gt;Audio&lt;/span&gt;" style="rounded=1;whiteSpace=wrap;html=1;" vertex="1" parent="1">
          <mxGeometry x="447" y="330" width="220" height="40" as="geometry" />
        </mxCell>
        <mxCell id="oZkibnHn8L5nNyBWjRg7-17" value="&lt;span style=&quot;font-size: 19px;&quot;&gt;PC&lt;/span&gt;&lt;span style=&quot;font-size: 19px;&quot;&gt;Sound&lt;/span&gt;" style="rounded=1;whiteSpace=wrap;html=1;" vertex="1" parent="1">
          <mxGeometry x="448" y="379" width="220" height="40" as="geometry" />
        </mxCell>
        <mxCell id="oZkibnHn8L5nNyBWjRg7-18" value="&lt;span style=&quot;font-size: 19px;&quot;&gt;PC&lt;/span&gt;&lt;span style=&quot;font-size: 19px;&quot;&gt;Input&lt;/span&gt;" style="rounded=1;whiteSpace=wrap;html=1;" vertex="1" parent="1">
          <mxGeometry x="447" y="439" width="220" height="40" as="geometry" />
        </mxCell>
      </root>
    </mxGraphModel>
  </diagram>
</mxfile>
